<svg width="18" height="20" viewBox="0 0 18 20" fill="none" xmlns="http://www.w3.org/2000/svg">
<path d="M1.97133 20C1.42921 20 0.965129 19.8042 0.579077 19.4125C0.193026 19.0208 0 18.55 0 18V4C0 3.45 0.193026 2.97917 0.579077 2.5875C0.965129 2.19583 1.42921 2 1.97133 2H2.95699V0H4.92832V2H12.8136V0H14.7849V2H15.7706C16.3127 2 16.7768 2.19583 17.1629 2.5875C17.5489 2.97917 17.7419 3.45 17.7419 4V18C17.7419 18.55 17.5489 19.0208 17.1629 19.4125C16.7768 19.8042 16.3127 20 15.7706 20H1.97133ZM1.97133 18H15.7706V8H1.97133V18ZM1.97133 6H15.7706V4H1.97133V6ZM8.87097 12C8.5917 12 8.3576 11.9042 8.16868 11.7125C7.97976 11.5208 7.8853 11.2833 7.8853 11C7.8853 10.7167 7.97976 10.4792 8.16868 10.2875C8.3576 10.0958 8.5917 10 8.87097 10C9.15024 10 9.38433 10.0958 9.57325 10.2875C9.76217 10.4792 9.85663 10.7167 9.85663 11C9.85663 11.2833 9.76217 11.5208 9.57325 11.7125C9.38433 11.9042 9.15024 12 8.87097 12ZM4.92832 12C4.64904 12 4.41495 11.9042 4.22603 11.7125C4.03711 11.5208 3.94265 11.2833 3.94265 11C3.94265 10.7167 4.03711 10.4792 4.22603 10.2875C4.41495 10.0958 4.64904 10 4.92832 10C5.20759 10 5.44168 10.0958 5.6306 10.2875C5.81952 10.4792 5.91398 10.7167 5.91398 11C5.91398 11.2833 5.81952 11.5208 5.6306 11.7125C5.44168 11.9042 5.20759 12 4.92832 12ZM12.8136 12C12.5343 12 12.3003 11.9042 12.1113 11.7125C11.9224 11.5208 11.828 11.2833 11.828 11C11.828 10.7167 11.9224 10.4792 12.1113 10.2875C12.3003 10.0958 12.5343 10 12.8136 10C13.0929 10 13.327 10.0958 13.5159 10.2875C13.7048 10.4792 13.7993 10.7167 13.7993 11C13.7993 11.2833 13.7048 11.5208 13.5159 11.7125C13.327 11.9042 13.0929 12 12.8136 12ZM8.87097 16C8.5917 16 8.3576 15.9042 8.16868 15.7125C7.97976 15.5208 7.8853 15.2833 7.8853 15C7.8853 14.7167 7.97976 14.4792 8.16868 14.2875C8.3576 14.0958 8.5917 14 8.87097 14C9.15024 14 9.38433 14.0958 9.57325 14.2875C9.76217 14.4792 9.85663 14.7167 9.85663 15C9.85663 15.2833 9.76217 15.5208 9.57325 15.7125C9.38433 15.9042 9.15024 16 8.87097 16ZM4.92832 16C4.64904 16 4.41495 15.9042 4.22603 15.7125C4.03711 15.5208 3.94265 15.2833 3.94265 15C3.94265 14.7167 4.03711 14.4792 4.22603 14.2875C4.41495 14.0958 4.64904 14 4.92832 14C5.20759 14 5.44168 14.0958 5.6306 14.2875C5.81952 14.4792 5.91398 14.7167 5.91398 15C5.91398 15.2833 5.81952 15.5208 5.6306 15.7125C5.44168 15.9042 5.20759 16 4.92832 16ZM12.8136 16C12.5343 16 12.3003 15.9042 12.1113 15.7125C11.9224 15.5208 11.828 15.2833 11.828 15C11.828 14.7167 11.9224 14.4792 12.1113 14.2875C12.3003 14.0958 12.5343 14 12.8136 14C13.0929 14 13.327 14.0958 13.5159 14.2875C13.7048 14.4792 13.7993 14.7167 13.7993 15C13.7993 15.2833 13.7048 15.5208 13.5159 15.7125C13.327 15.9042 13.0929 16 12.8136 16Z" fill="#E3E3E3"/>
</svg>
