<svg width="20" height="21" viewBox="0 0 20 21" fill="none" xmlns="http://www.w3.org/2000/svg">
<path d="M1.6017 13.025L0 11.85L4.92832 3.85L7.8853 7.35L11.828 0.85L14.7849 5.35L18.1116 0L19.7133 1.175L14.8342 9.025L11.9019 4.55L8.15636 10.725L5.17473 7.2L1.6017 13.025ZM13.3065 17C13.9964 17 14.5796 16.7583 15.056 16.275C15.5324 15.7917 15.7706 15.2 15.7706 14.5C15.7706 13.8 15.5324 13.2083 15.056 12.725C14.5796 12.2417 13.9964 12 13.3065 12C12.6165 12 12.0333 12.2417 11.5569 12.725C11.0805 13.2083 10.8423 13.8 10.8423 14.5C10.8423 15.2 11.0805 15.7917 11.5569 16.275C12.0333 16.7583 12.6165 17 13.3065 17ZM18.3333 21L15.672 18.3C15.3271 18.5333 14.9533 18.7083 14.5509 18.825C14.1484 18.9417 13.7336 19 13.3065 19C12.0744 19 11.0271 18.5625 10.1647 17.6875C9.3022 16.8125 8.87097 15.75 8.87097 14.5C8.87097 13.25 9.3022 12.1875 10.1647 11.3125C11.0271 10.4375 12.0744 10 13.3065 10C14.5385 10 15.5858 10.4375 16.4483 11.3125C17.3107 12.1875 17.7419 13.25 17.7419 14.5C17.7419 14.9333 17.6844 15.3542 17.5694 15.7625C17.4545 16.1708 17.282 16.55 17.052 16.9L19.7133 19.6L18.3333 21Z" fill="#E3E3E3"/>
</svg>
