<svg width="20" height="20" viewBox="0 0 20 20" fill="none" xmlns="http://www.w3.org/2000/svg">
<path d="M3.7948 15.1C4.63262 14.45 5.569 13.9375 6.60394 13.5625C7.63889 13.1875 8.72312 13 9.85663 13C10.9901 13 12.0744 13.1875 13.1093 13.5625C14.1443 13.9375 15.0806 14.45 15.9185 15.1C16.4934 14.4167 16.9411 13.6417 17.2614 12.775C17.5818 11.9083 17.7419 10.9833 17.7419 10C17.7419 7.78333 16.9739 5.89583 15.4379 4.3375C13.902 2.77917 12.0415 2 9.85663 2C7.67174 2 5.81131 2.77917 4.27531 4.3375C2.73932 5.89583 1.97133 7.78333 1.97133 10C1.97133 10.9833 2.1315 11.9083 2.45184 12.775C2.77218 13.6417 3.21983 14.4167 3.7948 15.1ZM9.85663 11C8.88739 11 8.07012 10.6625 7.40479 9.9875C6.73947 9.3125 6.40681 8.48333 6.40681 7.5C6.40681 6.51667 6.73947 5.6875 7.40479 5.0125C8.07012 4.3375 8.88739 4 9.85663 4C10.8259 4 11.6431 4.3375 12.3085 5.0125C12.9738 5.6875 13.3065 6.51667 13.3065 7.5C13.3065 8.48333 12.9738 9.3125 12.3085 9.9875C11.6431 10.6625 10.8259 11 9.85663 11ZM9.85663 20C8.49313 20 7.21177 19.7375 6.01254 19.2125C4.81332 18.6875 3.77016 17.975 2.88306 17.075C1.99597 16.175 1.29368 15.1167 0.77621 13.9C0.258737 12.6833 0 11.3833 0 10C0 8.61667 0.258737 7.31667 0.77621 6.1C1.29368 4.88333 1.99597 3.825 2.88306 2.925C3.77016 2.025 4.81332 1.3125 6.01254 0.7875C7.21177 0.2625 8.49313 0 9.85663 0C11.2201 0 12.5015 0.2625 13.7007 0.7875C14.8999 1.3125 15.9431 2.025 16.8302 2.925C17.7173 3.825 18.4196 4.88333 18.9371 6.1C19.4545 7.31667 19.7133 8.61667 19.7133 10C19.7133 11.3833 19.4545 12.6833 18.9371 13.9C18.4196 15.1167 17.7173 16.175 16.8302 17.075C15.9431 17.975 14.8999 18.6875 13.7007 19.2125C12.5015 19.7375 11.2201 20 9.85663 20ZM9.85663 18C10.7273 18 11.5487 17.8708 12.3208 17.6125C13.0929 17.3542 13.7993 16.9833 14.44 16.5C13.7993 16.0167 13.0929 15.6458 12.3208 15.3875C11.5487 15.1292 10.7273 15 9.85663 15C8.98596 15 8.16458 15.1292 7.39247 15.3875C6.62037 15.6458 5.91398 16.0167 5.2733 16.5C5.91398 16.9833 6.62037 17.3542 7.39247 17.6125C8.16458 17.8708 8.98596 18 9.85663 18ZM9.85663 9C10.2838 9 10.6369 8.85833 10.9162 8.575C11.1955 8.29167 11.3351 7.93333 11.3351 7.5C11.3351 7.06667 11.1955 6.70833 10.9162 6.425C10.6369 6.14167 10.2838 6 9.85663 6C9.42951 6 9.07631 6.14167 8.79704 6.425C8.51777 6.70833 8.37814 7.06667 8.37814 7.5C8.37814 7.93333 8.51777 8.29167 8.79704 8.575C9.07631 8.85833 9.42951 9 9.85663 9Z" fill="#E3E3E3"/>
</svg>
