<svg width="20" height="20" viewBox="0 0 20 20" fill="none" xmlns="http://www.w3.org/2000/svg">
<path d="M9.85663 20C8.49313 20 7.21177 19.7375 6.01255 19.2125C4.81332 18.6875 3.77016 17.975 2.88306 17.075C1.99597 16.175 1.29368 15.1167 0.77621 13.9C0.258737 12.6833 0 11.3833 0 10C0 8.61667 0.258737 7.31667 0.77621 6.1C1.29368 4.88333 1.99597 3.825 2.88306 2.925C3.77016 2.025 4.81332 1.3125 6.01255 0.7875C7.21177 0.2625 8.49313 0 9.85663 0C11.2201 0 12.5015 0.2625 13.7007 0.7875C14.8999 1.3125 15.9431 2.025 16.8302 2.925C17.7173 3.825 18.4196 4.88333 18.9371 6.1C19.4545 7.31667 19.7133 8.61667 19.7133 10C19.7133 11.3833 19.4545 12.6833 18.9371 13.9C18.4196 15.1167 17.7173 16.175 16.8302 17.075C15.9431 17.975 14.8999 18.6875 13.7007 19.2125C12.5015 19.7375 11.2201 20 9.85663 20ZM14.7849 7.5L16.1156 7.05L16.5099 5.7C15.9842 4.9 15.3517 4.2125 14.6125 3.6375C13.8732 3.0625 13.06 2.63333 12.1729 2.35L10.8423 3.3V4.7L14.7849 7.5ZM4.92832 7.5L8.87097 4.7V3.3L7.54032 2.35C6.65323 2.63333 5.84005 3.0625 5.10081 3.6375C4.36156 4.2125 3.72909 4.9 3.20341 5.7L3.59767 7.05L4.92832 7.5ZM3.89337 15.2L5.02688 15.1L5.76613 13.75L4.33692 9.4L2.95699 8.9L1.97133 9.65C1.97133 10.7333 2.11918 11.7208 2.41487 12.6125C2.71057 13.5042 3.20341 14.3667 3.89337 15.2ZM9.85663 18C10.2838 18 10.7027 17.9667 11.1134 17.9C11.524 17.8333 11.9265 17.7333 12.3208 17.6L13.0108 16.1L12.3701 15H7.34319L6.70251 16.1L7.39247 17.6C7.78674 17.7333 8.18922 17.8333 8.59991 17.9C9.0106 17.9667 9.42951 18 9.85663 18ZM7.63889 13H12.0744L13.4543 9L9.85663 6.45L6.30824 9L7.63889 13ZM15.8199 15.2C16.5099 14.3667 17.0027 13.5042 17.2984 12.6125C17.5941 11.7208 17.7419 10.7333 17.7419 9.65L16.7563 8.95L15.3763 9.4L13.9471 13.75L14.6864 15.1L15.8199 15.2Z" fill="#E3E3E3"/>
</svg>
