<svg width="20" height="16" viewBox="0 0 20 16" fill="none" xmlns="http://www.w3.org/2000/svg">
<path d="M14.7849 11C14.095 11 13.5118 10.7583 13.0354 10.275C12.559 9.79167 12.3208 9.2 12.3208 8.5C12.3208 7.8 12.559 7.20833 13.0354 6.725C13.5118 6.24167 14.095 6 14.7849 6C15.4749 6 16.0581 6.24167 16.5345 6.725C17.0109 7.20833 17.2491 7.8 17.2491 8.5C17.2491 9.2 17.0109 9.79167 16.5345 10.275C16.0581 10.7583 15.4749 11 14.7849 11ZM9.85663 16V14.6C9.85663 14.2 9.9593 13.8292 10.1647 13.4875C10.37 13.1458 10.6616 12.9 11.0394 12.75C11.6308 12.5 12.2428 12.3125 12.8752 12.1875C13.5077 12.0625 14.1443 12 14.7849 12C15.4256 12 16.0622 12.0625 16.6947 12.1875C17.3271 12.3125 17.9391 12.5 18.5305 12.75C18.9083 12.9 19.1999 13.1458 19.4052 13.4875C19.6106 13.8292 19.7133 14.2 19.7133 14.6V16H9.85663ZM7.8853 8C6.80108 8 5.87291 7.60833 5.10081 6.825C4.3287 6.04167 3.94265 5.1 3.94265 4C3.94265 2.9 4.3287 1.95833 5.10081 1.175C5.87291 0.391667 6.80108 0 7.8853 0C8.96953 0 9.8977 0.391667 10.6698 1.175C11.4419 1.95833 11.828 2.9 11.828 4C11.828 5.1 11.4419 6.04167 10.6698 6.825C9.8977 7.60833 8.96953 8 7.8853 8ZM0 16V13.2C0 12.6333 0.139636 12.1125 0.418907 11.6375C0.698178 11.1625 1.08423 10.8 1.57706 10.55C2.56272 10.05 3.58535 9.66667 4.64494 9.4C5.70453 9.13333 6.78465 9 7.8853 9C8.46027 9 9.03524 9.05 9.61022 9.15C10.1852 9.25 10.7602 9.36667 11.3351 9.5L9.6595 11.2C9.3638 11.1167 9.0681 11.0625 8.7724 11.0375C8.4767 11.0125 8.181 11 7.8853 11C6.9325 11 6.00022 11.1167 5.08849 11.35C4.17675 11.5833 3.30197 11.9167 2.46416 12.35C2.29988 12.4333 2.17667 12.55 2.09453 12.7C2.0124 12.85 1.97133 13.0167 1.97133 13.2V14H7.8853V16H0ZM7.8853 6C8.42742 6 8.8915 5.80417 9.27755 5.4125C9.66361 5.02083 9.85663 4.55 9.85663 4C9.85663 3.45 9.66361 2.97917 9.27755 2.5875C8.8915 2.19583 8.42742 2 7.8853 2C7.34319 2 6.87911 2.19583 6.49306 2.5875C6.107 2.97917 5.91398 3.45 5.91398 4C5.91398 4.55 6.107 5.02083 6.49306 5.4125C6.87911 5.80417 7.34319 6 7.8853 6Z" fill="#E3E3E3"/>
</svg>
